<?xml version="1.0" encoding="utf-8" ?>
<!--
    SVG diagram of the timing of an example Z80 instruction
-->
<svg xmlns="http://www.w3.org/2000/svg"
     xmlns:xlink="http://www.w3.org/1999/xlink"
     viewBox="0 0 490 300" width="490" height="300">
    <defs>
        <path id="clk" d="M0 0 l2 -20 l38 0 l2 20 l38 0 m0 190 l0 -240"/>
        <path id="lar" d="M0 0 l 10 -5 l 0 10 l -10 -5" fill="black"/>
        <path id="rar" d="M0 0 l -10 -5 l 0 10 l 10 -5" fill="black"/>
        <text id="t1" x="40" y="40">T1</text>
        <text id="t2" x="120" y="40">T2</text>
        <text id="t3" x="200" y="40">TW</text>
        <text id="t4" x="280" y="40">T3</text>
    </defs>
    <!-- This makes it easier to edit
    <rect x="0" y="0" width="490" height="300" fill="white" stroke="black"/>
    -->
    <g transform="translate(60 0)">
        <line x1="0" y1="10" x2="0" y2="270"/>

        <!-- System clock -->
        <g>
            <text class="left not" x="-15" y="84">CLK</text>
            <line x1="-10" y1="80" x2="0" y2="80"/>
            <use xlink:href="#clk" x="0" y="80"/>
            <use xlink:href="#clk" x="80" y="80"/>
            <use xlink:href="#clk" x="160" y="80"/>
            <use xlink:href="#clk" x="240" y="80"/>
            <use xlink:href="#clk" x="320" y="80"/>
            <use xlink:href="#t1"/>
            <use xlink:href="#t2"/>
            <use xlink:href="#t3"/>
            <use xlink:href="#t4"/>
            <use xlink:href="#t1" x="320"/>
        </g>

        <!-- Address bus -->
        <g transform="translate(0,100)">
            <text class="left" x="-15" y="9">Addr</text>
            <path id="addr" d="M-10 -5 l20 0 l5 20 l315 0 l5 -20 l75 0"/>
            <use xlink:href="#addr" transform="scale(1,-1)" y="-10"/>
            <text x="140" y="9">Port Address</text>
        </g>

        <!-- IORQ -->
        <g transform="translate(0,130)">
            <text class="left not" x="-15" y="9">IORQ</text>
            <path d="M-10 -5 l50 0 l5 20 l240 0 l5 -20 l45 0"/>
        </g>

        <!-- RD -->
        <g transform="translate(0,160)">
            <text class="left not" x="-15" y="9">RD</text>
            <path d="M-10 -5 l345 0"/>
            <path class="dot" d="M-10 15 l345 0"/>
        </g>

        <!-- WR -->
        <g transform="translate(0,190)">
            <text class="left not" x="-15" y="9">WR</text>
            <path d="M-10 -5 l50 0 l5 20 l240 0 l5 -20 l45 0"/>
        </g>

        <!-- Databus -->
        <g transform="translate(0,220)">
            <text class="left" x="-15" y="9">Data</text>
            <path d="M-10 0 l60 0 l5 -10 l270 0 l5 10 l10 0 M50 0 l5 10 l270 0 l5 -10"/>
            <text x="200" y="4">Data Out</text>
        </g>

        <!-- WAIT -->
        <g transform="translate(0,250)">
            <text class="left not" x="-15" y="9">WAIT</text>
            <path class="dot" d="M-10 -5 l185 0 m40 0 l200 0 M-10 15 l180 0 m55 0 l190 0"/>
            <path d="M170 15 l5 0 l5 -20 l30 0 l5 20 l10 0 "/>
        </g>

        <!-- M1 label -->
        <g>
            <path d="M0 20 l320 0 m0 -10 l0 20"/>
            <use xlink:href="#lar" x="0" y="20"/>
            <use xlink:href="#rar" x="320" y="20"/>
            <text x="160" y="15">I/O Write Cycle</text>
        </g>

        <!-- Diagram title -->
        <text class="title" x="160" y="290">I/O Write Cycle</text>
    </g>
    <style type="text/css"><![CDATA[
        g {
            fill: none;
            stroke: black;
        }
        path.dash {
            stroke-dasharray: 10,10;
        }
        path.dot {
            stroke-dasharray: 5,5;
        }
        text.left {
            text-anchor: end;
        }
        text.not {
            text-decoration: overline;
            webkit-text-decoration-thickness: 2px;text-decoration-thickness: 2px;
        }
        text {
            font-size: 80%;
            text-anchor: middle;
            stroke: none;
            fill: black;
            font: Verdana, Helvetica, Arial, sans-serif;
        }
        text.title {
            font-size: 120%;
            font-weight: bold;
        }
    ]]></style>
</svg>
