<?xml version="1.0" encoding="utf-8"?>
<svg version="1.1" id="CBM" xmlns="http://www.w3.org/2000/svg" x="0px" y="0px"
     viewBox="15 0 90 115" enable-background="new 0 0 215.6 281.6" xml:space="preserve">
 <path d="M 58.375 4.59375 C 29.32068 4.59375 5.75 28.16443 5.75 57.21875 C 5.75 86.27307 29.32068 109.8125 58.375 109.8125 C 63.962369 109.8125 69.354977 108.92539 74.40625 107.3125 L 74.40625 81.0625 C 70.044153 83.598731 64.939325 85.0625 59.46875 85.0625 C 43.481011 85.0625 30.53125 72.597395 30.53125 57.21875 C 30.53125 41.840105 43.481011 29.375 59.46875 29.375 C 64.939325 29.375 70.044153 30.838769 74.40625 33.375 L 74.40625 7.09375 C 69.354977 5.478991 63.962369 4.59375 58.375 4.59375 z"/>
    <polygon points="179.959,78.103 179.959,78.103 298.459,78.103 245.459,134.853 179.959,134.853 "
             transform="matrix(0.330752,0,0,0.321694,15.34867,12.07971)"/>
    <polygon points="179.959,203.103 179.959,203.103 298.459,203.103 245.459,146.353 179.959,146.353 "
             transform="matrix(0.330752,0,0,0.321694,15.34867,12.07971)"/>
</svg>
